# xmcd
#
# Track frame offsets:
#	150
#	6933
#	27287
#	50937
#	75527
#	92942
#	110720
#	116976
#	141485
#	163942
#	178532
#	195560
#	198164
#	212311
#	219225
#	240637
#
# Disc length: 3562 seconds
#
# Revision: 1
# Processed by: cddbd v1.5.2PL0 Copyright (c) Steve Scherf et al.
# Submitted via: audiograbber 1.83.01
#
DISCID=e70de810
DTITLE=India.Arie - Testimony: Vol. 1, Life and Relationship
DYEAR=2006
DGENRE=Soul
TTITLE0=Intro: Loving
TTITLE1=These Eyes
TTITLE2=The Heart Of The Matter
TTITLE3=Good Mourning
TTITLE4=Private Party
TTITLE5=There's Hope
TTITLE6=Interlude: Living
TTITLE7=India's Song
TTITLE8=Wings Of Forgiveness
TTITLE9=Summer
TTITLE10=I Am Not My Hair
TTITLE11=Great Grandmother
TTITLE12=Better People
TTITLE13=Outro: Learning
TTITLE14=I Choose
TTITLE15=BONUS-This Too Shall Pass
EXTD=
EXTT0=
EXTT1=
EXTT2=
EXTT3=
EXTT4=
EXTT5=
EXTT6=
EXTT7=
EXTT8=
EXTT9=
EXTT10=
EXTT11=
EXTT12=
EXTT13=
EXTT14=
EXTT15=
PLAYORDER=
